<?xml version="1.0" encoding="utf-8"?>
<!-- Generator: Adobe Illustrator 16.0.4, SVG Export Plug-In . SVG Version: 6.00 Build 0)  -->
<!DOCTYPE svg PUBLIC "-//W3C//DTD SVG 1.1//EN" "http://www.w3.org/Graphics/SVG/1.1/DTD/svg11.dtd">
<svg version="1.1" id="Layer_1" xmlns="http://www.w3.org/2000/svg" xmlns:xlink="http://www.w3.org/1999/xlink" x="0px" y="0px"
	 width="31.998px" height="28.984px" viewBox="0 0 31.998 28.984" enable-background="new 0 0 31.998 28.984" xml:space="preserve">
<path fill="#E37948" d="M8.227,20.393h4.857c0,0,0,4.682,0,6.777c0,0.945-0.972,0.994-0.972,0.994H9.198
	c0,0-0.971-0.014-0.971-0.979C8.227,25.097,8.227,20.393,8.227,20.393z"/>
<path fill="#C1673D" d="M8.227,20.393h4.857l-4.857,4.857V20.393z"/>
<path fill="#E2574C" d="M24.742-0.008H7.255c-3.756,0-6.8,3.043-6.8,6.801v12.63c0,0.536,0.433,0.972,0.971,0.972h29.146
	c0.537,0,0.972-0.436,0.972-0.972V6.793C31.543,3.035,28.499-0.008,24.742-0.008z"/>
<path fill="#BF392C" d="M25.438,0.027c-0.229-0.024-0.463-0.035-0.696-0.035c-3.757,0-6.8,3.045-6.8,6.801v13.602h12.629
	c0.537,0,0.972-0.436,0.972-0.972V6.793C31.543,3.272,28.868,0.375,25.438,0.027z"/>
<g>
	<path fill="#F3EF8B" d="M11.142,13.593V7.764c0-0.537-0.434-0.972-0.972-0.972H7.255c-0.538,0-0.972,0.436-0.972,0.972v1.942
		c0,0.537,0.434,0.971,0.972,0.971h1.943v2.915c-0.538,0-0.971,0.436-0.971,0.973s0.434,0.971,0.971,0.971h1.943
		c0.538,0,0.971-0.435,0.971-0.971C12.113,14.028,11.679,13.593,11.142,13.593z"/>
</g>
<path fill="#AD3428" d="M25.229,0.015c-0.162-0.011-0.321-0.023-0.486-0.023c-3.756,0-6.801,3.045-6.801,6.801v13.602h0.972V6.793
	C18.913,3.202,21.7,0.267,25.229,0.015z"/>
<path fill="#E4E7E7" d="M17.942,6.793h7.771c0.537,0,0.972,0.436,0.972,0.972v7.771c0,0.537-0.435,0.972-0.972,0.972h-7.771V6.793z"
	/>
<path fill="#C2C5C5" d="M21.828,8.736h2.914v2.915h-2.914V8.736z"/>
<rect x="17.942" y="6.793" fill="#CDCFCF" width="0.971" height="9.715"/>
<rect x="-8" y="36.208" display="none" fill="#5092C7" width="12.381" height="12.382"/>
<rect x="4.381" y="36.208" display="none" fill="#215E80" width="12.381" height="12.382"/>
<rect x="16.763" y="36.208" display="none" fill="#F3EF8B" width="12.381" height="12.382"/>
<rect x="29.144" y="36.208" display="none" fill="#CCC35A" width="12.382" height="12.382"/>
</svg>
