<?xml version="1.0" encoding="utf-8"?>
<!-- Generator: Adobe Illustrator 16.0.4, SVG Export Plug-In . SVG Version: 6.00 Build 0)  -->
<!DOCTYPE svg PUBLIC "-//W3C//DTD SVG 1.1//EN" "http://www.w3.org/Graphics/SVG/1.1/DTD/svg11.dtd">
<svg version="1.1" id="Layer_1" xmlns="http://www.w3.org/2000/svg" xmlns:xlink="http://www.w3.org/1999/xlink" x="0px" y="0px"
	 width="31.998px" height="28.984px" viewBox="0 0 31.998 28.984" enable-background="new 0 0 31.998 28.984" xml:space="preserve">
<path fill="#E4E7E7" d="M31.985,19.967v2.498c0,0.838-0.918,1.52-1.793,1.52H1.584c-0.874,0-1.583-0.682-1.583-1.52v-2.498H31.985z"
	/>
<path fill="#324D5B" d="M1.584,0h28.83c0.874,0,1.584,0.683,1.584,1.521v18.453c-0.019-0.008-31.999-0.002-31.997,0V1.52
	C0.001,0.68,0.71,0,1.584,0z"/>
<path fill="#576E78" d="M29.999,2.008v16c-0.062-0.002-27.983,0.018-27.995,0v-16C2.004,2.008,30.006,2.015,29.999,2.008z"/>
<path fill="#CFD3D5" d="M11.017,27.863h9.985v1.121h-9.985V27.863z"/>
<linearGradient id="SVGID_1_" gradientUnits="userSpaceOnUse" x1="65.4795" y1="-660.4695" x2="65.4795" y2="-656.5886" gradientTransform="matrix(1 0 0 -1 -49.4702 -632.6069)">
	<stop  offset="0" style="stop-color:#E9EBEB"/>
	<stop  offset="1" style="stop-color:#D7D9D9"/>
</linearGradient>
<path fill="url(#SVGID_1_)" d="M18.972,23.982h-5.925c0.01,2.016-1.003,3.877-2.03,3.877l0.002,0.004H21l0.001-0.004
	C19.976,27.859,18.962,25.998,18.972,23.982z"/>
</svg>
