<?xml version="1.0" encoding="utf-8"?>
<!-- Generator: Adobe Illustrator 16.0.4, SVG Export Plug-In . SVG Version: 6.00 Build 0)  -->
<!DOCTYPE svg PUBLIC "-//W3C//DTD SVG 1.1//EN" "http://www.w3.org/Graphics/SVG/1.1/DTD/svg11.dtd">
<svg version="1.1" id="Layer_1" xmlns="http://www.w3.org/2000/svg" xmlns:xlink="http://www.w3.org/1999/xlink" x="0px" y="0px"
	 width="31.998px" height="28.984px" viewBox="0 0 31.998 28.984" enable-background="new 0 0 31.998 28.984" xml:space="preserve">
<path fill="#215E80" d="M14.494,11.807H4.812c-1.826,0-3.306,1.472-3.306,3.287v7.858c0,1.817,1.48,3.29,3.306,3.29h2.685
	c0.015-0.006,2.898,2.822,3.038,2.776c0.008-0.007,0.029-2.776-0.003-2.776h3.962c1.827,0,3.305-1.473,3.305-3.29v-7.858
	C17.799,13.28,16.32,11.807,14.494,11.807z"/>
<path fill="#5092C7" d="M27.187,0H14.787c-1.826,0-3.304,1.479-3.304,3.306v9.71c0,1.823,1.479,3.303,3.304,3.303h5.772
	c-0.031,0-0.009,2.784-0.002,2.791c0.139,0.047,3.021-2.796,3.037-2.791h3.592c1.826,0,3.306-1.479,3.306-3.303v-9.71
	C30.491,1.479,29.013,0,27.187,0z"/>
<path fill="#FFFFFF" d="M16.452,7.265c-0.75,0-1.359,0.608-1.359,1.358s0.609,1.359,1.359,1.359s1.359-0.607,1.359-1.359
	C17.812,7.874,17.202,7.265,16.452,7.265z M20.981,7.265c-0.75,0-1.358,0.608-1.358,1.358s0.608,1.359,1.358,1.359
	s1.359-0.607,1.359-1.359C22.342,7.874,21.731,7.265,20.981,7.265z M25.513,7.265c-0.75,0-1.357,0.608-1.357,1.358
	s0.607,1.359,1.357,1.359c0.752,0,1.359-0.607,1.359-1.359C26.872,7.874,26.265,7.265,25.513,7.265z"/>
<rect x="-8" y="32.083" display="none" fill="#5092C7" width="12.381" height="12.382"/>
<rect x="4.381" y="32.083" display="none" fill="#215E80" width="12.381" height="12.382"/>
<rect x="16.763" y="32.083" display="none" fill="#F3EF8B" width="12.381" height="12.382"/>
<rect x="29.144" y="32.083" display="none" fill="#CCC35A" width="12.382" height="12.382"/>
</svg>
